<?xml version="1.0" encoding="utf-8"?>
<svg version="1.1" xmlns:xlink="http://www.w3.org/1999/xlink" width="13px" height="18px" xmlns="http://www.w3.org/2000/svg">
  <g transform="matrix(1 0 0 1 -292 -540 )">
    <path d="M 12.5711805555556 8.208984375  C 12.8570601851852 8.431640625  13 8.6953125  13 9  C 13 9.3046875  12.8570601851852 9.568359375  12.5711805555556 9.791015625  L 2.46006944444444 17.666015625  C 2.17418981481481 17.888671875  1.83564814814815 18  1.44444444444444 18  C 1.05324074074074 18  0.714699074074074 17.888671875  0.428819444444444 17.666015625  C 0.142939814814815 17.443359375  0 17.1796875  0 16.875  L 0 1.125  C 0 0.820312499999997  0.142939814814815 0.556640624999997  0.428819444444444 0.333984375  C 0.714699074074074 0.111328124999999  1.05324074074074 0  1.44444444444444 0  C 1.83564814814815 0  2.17418981481481 0.111328124999999  2.46006944444444 0.333984375  L 12.5711805555556 8.208984375  Z " fill-rule="nonzero" fill="#d7d7d7" stroke="none" transform="matrix(1 0 0 1 292 540 )" />
  </g>
</svg>