<?xml version="1.0" encoding="utf-8"?>
<svg version="1.1" xmlns:xlink="http://www.w3.org/1999/xlink" width="14px" height="23px" xmlns="http://www.w3.org/2000/svg">
  <g transform="matrix(1 0 0 1 -428 -654 )">
    <path d="M 13.5381944444444 10.4892578125  C 13.8460648148148 10.7737630208333  14 11.1106770833333  14 11.5  C 14 11.8893229166667  13.8460648148148 12.2262369791667  13.5381944444444 12.5107421875  L 2.64930555555556 22.5732421875  C 2.34143518518519 22.8577473958333  1.97685185185185 23  1.55555555555556 23  C 1.13425925925926 23  0.769675925925926 22.8577473958333  0.461805555555556 22.5732421875  C 0.153935185185185 22.2887369791667  0 21.9518229166667  0 21.5625  L 0 1.4375  C 0 1.04817708333333  0.153935185185185 0.71126302083333  0.461805555555556 0.4267578125  C 0.769675925925926 0.142252604166665  1.13425925925926 0  1.55555555555556 0  C 1.97685185185185 0  2.34143518518519 0.142252604166665  2.64930555555556 0.4267578125  L 13.5381944444444 10.4892578125  Z " fill-rule="nonzero" fill="#d7d7d7" stroke="none" transform="matrix(1 0 0 1 428 654 )" />
  </g>
</svg>