<?xml version="1.0" encoding="utf-8"?>
<svg version="1.1" xmlns:xlink="http://www.w3.org/1999/xlink" width="13px" height="18px" xmlns="http://www.w3.org/2000/svg">
  <g transform="matrix(1 0 0 1 -169 -540 )">
    <path d="M 12.5711805555556 0.333984375  C 12.8570601851852 0.556640624999997  13 0.820312499999997  13 1.125  L 13 16.875  C 13 17.1796875  12.8570601851852 17.443359375  12.5711805555556 17.666015625  C 12.2853009259259 17.888671875  11.9467592592593 18  11.5555555555556 18  C 11.1643518518519 18  10.8258101851852 17.888671875  10.5399305555556 17.666015625  L 0.428819444444444 9.791015625  C 0.142939814814815 9.568359375  0 9.3046875  0 9  C 0 8.6953125  0.142939814814815 8.431640625  0.428819444444444 8.208984375  L 10.5399305555556 0.333984375  C 10.8258101851852 0.111328124999999  11.1643518518519 0  11.5555555555556 0  C 11.9467592592593 0  12.2853009259259 0.111328124999999  12.5711805555556 0.333984375  Z " fill-rule="nonzero" fill="#000000" stroke="none" transform="matrix(1 0 0 1 169 540 )" />
  </g>
</svg>