<?xml version="1.0" encoding="utf-8"?>
<svg version="1.1" xmlns:xlink="http://www.w3.org/1999/xlink" width="14px" height="23px" xmlns="http://www.w3.org/2000/svg">
  <g transform="matrix(1 0 0 1 -298 -654 )">
    <path d="M 13.5381944444444 0.4267578125  C 13.8460648148148 0.71126302083333  14 1.04817708333333  14 1.4375  L 14 21.5625  C 14 21.9518229166667  13.8460648148148 22.2887369791667  13.5381944444444 22.5732421875  C 13.2303240740741 22.8577473958333  12.8657407407407 23  12.4444444444444 23  C 12.0231481481481 23  11.6585648148148 22.8577473958333  11.3506944444444 22.5732421875  L 0.461805555555556 12.5107421875  C 0.153935185185185 12.2262369791667  0 11.8893229166667  0 11.5  C 0 11.1106770833333  0.153935185185185 10.7737630208333  0.461805555555556 10.4892578125  L 11.3506944444444 0.4267578125  C 11.6585648148148 0.142252604166665  12.0231481481481 0  12.4444444444444 0  C 12.8657407407407 0  13.2303240740741 0.142252604166665  13.5381944444444 0.4267578125  Z " fill-rule="nonzero" fill="#8c8c8c" stroke="none" transform="matrix(1 0 0 1 298 654 )" />
  </g>
</svg>