<?xml version="1.0" encoding="utf-8"?>
<svg version="1.1" xmlns:xlink="http://www.w3.org/1999/xlink" width="10px" height="10px" xmlns="http://www.w3.org/2000/svg">
  <g transform="matrix(1 0 0 1 -637 -1308 )">
    <path d="M 642 1308  C 644.8 1308  647 1310.2  647 1313  C 647 1315.8  644.8 1318  642 1318  C 639.2 1318  637 1315.8  637 1313  C 637 1310.2  639.2 1308  642 1308  Z " fill-rule="nonzero" fill="#605f5f" stroke="none" />
    <path d="M 642 1308.5  C 644.52 1308.5  646.5 1310.48  646.5 1313  C 646.5 1315.52  644.52 1317.5  642 1317.5  C 639.48 1317.5  637.5 1315.52  637.5 1313  C 637.5 1310.48  639.48 1308.5  642 1308.5  Z " stroke-width="1" stroke="#797979" fill="none" />
  </g>
</svg>