<?xml version="1.0" encoding="utf-8"?>
<svg version="1.1" xmlns:xlink="http://www.w3.org/1999/xlink" width="50px" height="50px" xmlns="http://www.w3.org/2000/svg">
  <g transform="matrix(1 0 0 1 -75 -1523 )">
    <path d="M 100 1523  C 114 1523  125 1534  125 1548  C 125 1562  114 1573  100 1573  C 86 1573  75 1562  75 1548  C 75 1534  86 1523  100 1523  Z " fill-rule="nonzero" fill="#ffffff" stroke="none" />
    <path d="M 100 1523.5  C 113.72 1523.5  124.5 1534.28  124.5 1548  C 124.5 1561.72  113.72 1572.5  100 1572.5  C 86.28 1572.5  75.5 1561.72  75.5 1548  C 75.5 1534.28  86.28 1523.5  100 1523.5  Z " stroke-width="1" stroke="#d7d7d7" fill="none" />
  </g>
</svg>